<svg width="24" height="24" viewBox="0 0 24 24" fill="none" xmlns="http://www.w3.org/2000/svg">
<path fill-rule="evenodd" clip-rule="evenodd" d="M19.7782 19.7781C15.4824 24.0739 8.5176 24.0739 4.22183 19.7781C-0.0739434 15.4824 -0.0739444 8.51755 4.22183 4.22178C8.51759 -0.0739909 15.4824 -0.0739909 19.7782 4.22178C24.0739 8.51755 24.0739 15.4824 19.7782 19.7781ZM15.3588 9.70186C15.6517 9.40896 15.6517 8.93409 15.3588 8.6412C15.0659 8.3483 14.591 8.3483 14.2981 8.6412L12 10.9393L9.7019 8.6412C9.40901 8.3483 8.93414 8.3483 8.64124 8.6412C8.34835 8.93409 8.34835 9.40896 8.64124 9.70186L10.9393 12L8.64124 14.298C8.34835 14.5909 8.34835 15.0658 8.64124 15.3587C8.93414 15.6516 9.40901 15.6516 9.7019 15.3587L12 13.0606L14.2981 15.3587C14.591 15.6516 15.0659 15.6516 15.3588 15.3587C15.6517 15.0658 15.6517 14.5909 15.3588 14.298L13.0607 12L15.3588 9.70186Z" fill="#8A8A8A"/>
</svg>
