<svg width="256" height="256" viewBox="0 0 256 256" fill="none" xmlns="http://www.w3.org/2000/svg">
<path fill-rule="evenodd" clip-rule="evenodd" d="M130.539 52.0019L130.537 52.002L130.531 52.002C130.534 52.002 130.537 52.002 130.539 52.0019ZM185.814 71.2719L185.809 71.2679L185.803 71.2629C185.807 71.2659 185.81 71.2689 185.814 71.2719ZM130.657 194.929L130.567 194.929L130.531 194.929C130.573 194.929 130.615 194.929 130.657 194.929ZM180.034 176.946C180.058 176.934 180.082 176.921 180.106 176.908C180.082 176.921 180.058 176.934 180.034 176.946ZM181.163 209.729C187.329 206.412 193.092 202.413 198.332 197.805C200.616 195.809 202.499 193.352 203.83 190.558C205.177 187.731 205.922 184.638 205.994 181.474C206.066 178.311 205.463 175.184 204.242 172.293C203.022 169.404 201.221 166.836 198.99 164.727L195.728 161.642L193.983 161.162C190.668 159.355 186.964 158.373 183.2 158.291C177.514 158.166 171.885 160.097 167.442 163.864C163.153 167.481 158.244 170.412 152.907 172.518L152.814 172.554L152.722 172.592C145.718 175.445 138.167 176.925 130.522 176.929L130.407 176.929L130.293 176.931C123.587 177.02 116.948 175.787 110.791 173.326C104.635 170.866 99.1138 167.239 94.5472 162.704L94.5144 162.672L94.4814 162.639C89.9727 158.208 86.4424 153.01 84.054 147.354C79.0296 134.903 79.0281 121.128 84.0497 108.676C86.4513 103.014 89.9879 97.8083 94.4978 93.3644L94.5166 93.3459L94.5354 93.3273C99.1118 88.7914 104.64 85.1623 110.802 82.6968C116.965 80.2309 123.609 78.9909 130.322 79.069L130.42 79.0702L130.519 79.0702C138.19 79.0756 145.769 80.5404 152.816 83.3648L152.929 83.4104L153.044 83.4545C158.377 85.5083 163.255 88.4428 167.463 92.0984C171.739 95.8567 177.197 97.8508 182.748 97.8547C185.984 97.8617 189.203 97.1879 192.186 95.8565C195.191 94.5157 197.907 92.5287 200.114 89.9934L200.281 89.8025L200.441 89.6071C204.225 85.0058 206.119 79.0547 205.558 72.9851C205.001 66.9654 202.097 61.5348 197.664 57.7231C192.579 53.3102 187.007 49.4708 181.058 46.2707L181.04 46.2609L181.021 46.251C173.351 42.1477 165.161 39.053 156.671 37.0401C148.127 35.0052 139.362 33.9857 130.57 34.0018C117.66 33.9232 104.853 36.3695 92.9183 41.2097L92.915 41.2111L92.9117 41.2124C81.371 45.8896 70.8688 52.7504 62.0362 61.4274L62.0295 61.4339L62.0229 61.4404C53.2723 70.0545 46.2847 80.2407 41.4717 91.4633L41.4539 91.5048L41.4364 91.5463C31.5212 114.989 31.5212 141.274 41.4364 164.716L41.4519 164.753L41.4676 164.79C46.2771 176.022 53.2694 186.215 62.0302 194.829L62.0864 194.885L62.1432 194.94C70.9907 203.488 81.4762 210.225 92.9739 214.792C104.926 219.639 117.754 222.085 130.683 221.998C139.462 222.011 148.213 221 156.748 218.986L156.753 218.985L156.758 218.984C165.271 216.97 173.48 213.861 181.161 209.73L181.163 209.729Z" fill="#E0F7F4"/>
<path fill-rule="evenodd" clip-rule="evenodd" d="M130.539 52.0019L130.537 52.002L130.531 52.002C130.534 52.002 130.537 52.002 130.539 52.0019ZM185.814 71.2719L185.809 71.2679L185.803 71.2629C185.807 71.2659 185.81 71.2689 185.814 71.2719ZM130.657 194.929L130.567 194.929L130.531 194.929C130.573 194.929 130.615 194.929 130.657 194.929ZM180.034 176.946C180.058 176.934 180.082 176.921 180.106 176.908C180.082 176.921 180.058 176.934 180.034 176.946ZM181.163 209.729C187.329 206.412 193.092 202.413 198.332 197.805C200.616 195.809 202.499 193.352 203.83 190.558C205.177 187.731 205.922 184.638 205.994 181.474C206.066 178.311 205.463 175.184 204.242 172.293C203.022 169.404 201.221 166.836 198.99 164.727L195.728 161.642L193.983 161.162C190.668 159.355 186.964 158.373 183.2 158.291C177.514 158.166 171.885 160.097 167.442 163.864C163.153 167.481 158.244 170.412 152.907 172.518L152.814 172.554L152.722 172.592C145.718 175.445 138.167 176.925 130.522 176.929L130.407 176.929L130.293 176.931C123.587 177.02 116.948 175.787 110.791 173.326C104.635 170.866 99.1138 167.239 94.5472 162.704L94.5144 162.672L94.4814 162.639C89.9727 158.208 86.4424 153.01 84.054 147.354C79.0296 134.903 79.0281 121.128 84.0497 108.676C86.4513 103.014 89.9879 97.8083 94.4978 93.3644L94.5166 93.3459L94.5354 93.3273C99.1118 88.7914 104.64 85.1623 110.802 82.6968C116.965 80.2309 123.609 78.9909 130.322 79.069L130.42 79.0702L130.519 79.0702C138.19 79.0756 145.769 80.5404 152.816 83.3648L152.929 83.4104L153.044 83.4545C158.377 85.5083 163.255 88.4428 167.463 92.0984C171.739 95.8567 177.197 97.8508 182.748 97.8547C185.984 97.8617 189.203 97.1879 192.186 95.8565C195.191 94.5157 197.907 92.5287 200.114 89.9934L200.281 89.8025L200.441 89.6071C204.225 85.0058 206.119 79.0547 205.558 72.9851C205.001 66.9654 202.097 61.5348 197.664 57.7231C192.579 53.3102 187.007 49.4708 181.058 46.2707L181.04 46.2609L181.021 46.251C173.351 42.1477 165.161 39.053 156.671 37.0401C148.127 35.0052 139.362 33.9857 130.57 34.0018C117.66 33.9232 104.853 36.3695 92.9183 41.2097L92.915 41.2111L92.9117 41.2124C81.371 45.8896 70.8688 52.7504 62.0362 61.4274L62.0295 61.4339L62.0229 61.4404C53.2723 70.0545 46.2847 80.2407 41.4717 91.4633L41.4539 91.5048L41.4364 91.5463C31.5212 114.989 31.5212 141.274 41.4364 164.716L41.4519 164.753L41.4676 164.79C46.2771 176.022 53.2694 186.215 62.0302 194.829L62.0864 194.885L62.1432 194.94C70.9907 203.488 81.4762 210.225 92.9739 214.792C104.926 219.639 117.754 222.085 130.683 221.998C139.462 222.011 148.213 221 156.748 218.986L156.753 218.985L156.758 218.984C165.271 216.97 173.48 213.861 181.161 209.73L181.163 209.729Z" fill="url(#paint0_linear_13788_166407)"/>
<defs>
<linearGradient id="paint0_linear_13788_166407" x1="209.13" y1="222" x2="27.8791" y2="222" gradientUnits="userSpaceOnUse">
<stop stop-color="#05C8BA"/>
<stop offset="0.328125" stop-color="#2DCB92"/>
<stop offset="0.692708" stop-color="#53CE6D"/>
<stop offset="1" stop-color="#7AD146"/>
</linearGradient>
</defs>
</svg>
